<svg width="21" height="21" viewBox="0 0 21 21" fill="none" xmlns="http://www.w3.org/2000/svg">
<path d="M10.5 0.5C16.023 0.5 20.5 4.977 20.5 10.5C20.5 16.023 16.023 20.5 10.5 20.5C4.977 20.5 0.5 16.023 0.5 10.5C0.5 4.977 4.977 0.5 10.5 0.5ZM10.5 2.5C8.37827 2.5 6.34344 3.34285 4.84315 4.84315C3.34285 6.34344 2.5 8.37827 2.5 10.5C2.5 12.6217 3.34285 14.6566 4.84315 16.1569C6.34344 17.6571 8.37827 18.5 10.5 18.5C12.6217 18.5 14.6566 17.6571 16.1569 16.1569C17.6571 14.6566 18.5 12.6217 18.5 10.5C18.5 8.37827 17.6571 6.34344 16.1569 4.84315C14.6566 3.34285 12.6217 2.5 10.5 2.5ZM10.5 4.5C10.7449 4.50003 10.9813 4.58996 11.1644 4.75272C11.3474 4.91547 11.4643 5.13975 11.493 5.383L11.5 5.5V10.086L14.207 12.793C14.3863 12.973 14.4905 13.2144 14.4982 13.4684C14.506 13.7223 14.4168 13.9697 14.2488 14.1603C14.0807 14.3508 13.8464 14.4703 13.5935 14.4944C13.3406 14.5185 13.088 14.4454 12.887 14.29L12.793 14.207L9.793 11.207C9.63758 11.0514 9.53776 10.849 9.509 10.631L9.5 10.5V5.5C9.5 5.23478 9.60536 4.98043 9.79289 4.79289C9.98043 4.60536 10.2348 4.5 10.5 4.5Z" fill="#9747FF"/>
</svg>
