<svg width="50" height="50" viewBox="0 0 50 50" fill="none" xmlns="http://www.w3.org/2000/svg">
<path d="M50 25C50 38.8071 38.8071 50 25 50C11.1929 50 0 38.8071 0 25C0 11.1929 11.1929 0 25 0C38.8071 0 50 11.1929 50 25Z" fill="#9747FF"/>
<path d="M27.7778 37.1997H22.2222V21.3664H27.7778V37.1997Z" fill="white"/>
<path d="M26.9805 15.3286C26.4472 15.8353 25.787 16.0886 25 16.0886C24.2148 16.0904 23.5556 15.8379 23.0222 15.3313C22.4889 14.8246 22.2222 14.1974 22.2222 13.4497C22.2241 12.7038 22.4907 12.0775 23.0222 11.5709C23.5537 11.0642 24.213 10.8109 25 10.8109C25.7852 10.8126 26.4444 11.0659 26.9778 11.5709C27.5111 12.0758 27.7778 12.7021 27.7778 13.4497C27.7796 14.1957 27.5139 14.822 26.9805 15.3286Z" fill="white"/>
</svg>
