<svg width="24" height="25" viewBox="0 0 24 25" fill="none" xmlns="http://www.w3.org/2000/svg">
<path d="M21.989 15.6182L17.0424 13.4017L17.0288 13.3954C16.772 13.2855 16.4918 13.2414 16.2137 13.2671C15.9356 13.2928 15.6683 13.3874 15.4359 13.5424C15.4085 13.5604 15.3823 13.5801 15.3572 13.6012L12.8014 15.7799C11.1823 14.9935 9.51071 13.3345 8.72426 11.7363L10.9062 9.14176C10.9272 9.11551 10.9471 9.08926 10.966 9.06091C11.1177 8.82918 11.2097 8.56354 11.2339 8.28765C11.258 8.01177 11.2136 7.73418 11.1046 7.47959V7.467L8.88176 2.512C8.73763 2.17942 8.48982 1.90238 8.1753 1.72222C7.86078 1.54206 7.49643 1.46846 7.13665 1.51239C5.71385 1.69961 4.40786 2.39835 3.4626 3.47811C2.51733 4.55786 1.99744 5.94479 2.00001 7.37984C2.00001 15.7169 8.78306 22.5 17.1201 22.5C18.5552 22.5026 19.9421 21.9827 21.0218 21.0374C22.1016 20.0921 22.8003 18.7861 22.9876 17.3633C23.0316 17.0037 22.9581 16.6394 22.7782 16.3249C22.5982 16.0104 22.3214 15.7625 21.989 15.6182ZM17.1201 20.82C13.5568 20.8161 10.1405 19.3988 7.62083 16.8792C5.10117 14.3595 3.68391 10.9432 3.68002 7.37984C3.67607 6.3545 4.04548 5.36277 4.71925 4.58987C5.39303 3.81697 6.3251 3.31574 7.3414 3.1798C7.34098 3.18399 7.34098 3.18821 7.3414 3.1924L9.54641 8.12745L7.37605 10.7252C7.35402 10.7505 7.33401 10.7776 7.3162 10.806C7.15819 11.0485 7.06549 11.3277 7.0471 11.6165C7.0287 11.9053 7.08523 12.194 7.2112 12.4545C8.1625 14.4002 10.1229 16.3459 12.0895 17.2961C12.352 17.4209 12.6423 17.4755 12.9322 17.4545C13.2221 17.4335 13.5015 17.3377 13.7433 17.1764C13.7703 17.1583 13.7962 17.1386 13.821 17.1176L16.3736 14.9399L21.3086 17.1502H21.3201C21.1859 18.1679 20.6854 19.1019 19.9123 19.7773C19.1393 20.4528 18.1467 20.8234 17.1201 20.82Z" fill="#9747FF"/>
</svg>
