<svg width="60" height="59" viewBox="0 0 60 59" fill="none" xmlns="http://www.w3.org/2000/svg">
<circle cx="30" cy="29.5" r="29.5" fill="#9747FF"/>
<path d="M40 20H35.5V18.5C35.5 17.7044 35.1839 16.9413 34.6213 16.3787C34.0587 15.8161 33.2956 15.5 32.5 15.5H26.5C25.7044 15.5 24.9413 15.8161 24.3787 16.3787C23.8161 16.9413 23.5 17.7044 23.5 18.5V20H19C17.8065 20 16.6619 20.4741 15.818 21.318C14.9741 22.1619 14.5 23.3065 14.5 24.5V38C14.5 39.1935 14.9741 40.3381 15.818 41.182C16.6619 42.0259 17.8065 42.5 19 42.5H40C41.1935 42.5 42.3381 42.0259 43.182 41.182C44.0259 40.3381 44.5 39.1935 44.5 38V24.5C44.5 23.3065 44.0259 22.1619 43.182 21.318C42.3381 20.4741 41.1935 20 40 20ZM26.5 18.5H32.5V20H26.5V18.5ZM41.5 38C41.5 38.3978 41.342 38.7794 41.0607 39.0607C40.7794 39.342 40.3978 39.5 40 39.5H19C18.6022 39.5 18.2206 39.342 17.9393 39.0607C17.658 38.7794 17.5 38.3978 17.5 38V29.585L24.52 32C24.6793 32.0216 24.8407 32.0216 25 32H34C34.1627 31.997 34.3242 31.9718 34.48 31.925L41.5 29.585V38ZM41.5 26.42L33.76 29H25.24L17.5 26.42V24.5C17.5 24.1022 17.658 23.7206 17.9393 23.4393C18.2206 23.158 18.6022 23 19 23H40C40.3978 23 40.7794 23.158 41.0607 23.4393C41.342 23.7206 41.5 24.1022 41.5 24.5V26.42Z" fill="white"/>
</svg>
