<svg width="40" height="40" viewBox="0 0 40 40" fill="none" xmlns="http://www.w3.org/2000/svg">
<path d="M20 2.96289C15.4826 2.96289 11.1461 4.75897 7.95433 7.95288C4.75926 11.1481 2.9639 15.4813 2.96301 19.9999C2.96301 24.5166 4.75989 28.8531 7.95433 32.047C11.1461 35.2409 15.4826 37.037 20 37.037C24.5175 37.037 28.854 35.2409 32.0458 32.047C35.2402 28.8531 37.0371 24.5166 37.0371 19.9999C37.0371 15.4832 35.2402 11.1468 32.0458 7.95288C28.854 4.75897 24.5175 2.96289 20 2.96289Z" fill="url(#paint0_linear_821_1508)"/>
<path d="M10.6749 19.8203C15.6422 17.6566 18.9538 16.23 20.6096 15.5408C25.3427 13.5727 26.325 13.2309 26.9666 13.2193C27.1076 13.2171 27.4218 13.2519 27.6267 13.4177C27.7971 13.5574 27.845 13.7464 27.869 13.8791C27.8903 14.0117 27.9196 14.3138 27.8956 14.5497C27.64 17.2437 26.53 23.7811 25.9656 26.7985C25.7287 28.0752 25.2575 28.5033 24.8023 28.5451C23.812 28.6361 23.0613 27.8913 22.103 27.2633C20.6043 26.2802 19.7578 25.6685 18.3016 24.7094C16.6192 23.6009 17.7107 22.9915 18.669 21.9959C18.9192 21.7353 23.2796 17.7702 23.3622 17.4106C23.3728 17.3656 23.3835 17.1979 23.2823 17.1095C23.1838 17.0209 23.0374 17.0512 22.9309 17.0752C22.7792 17.1092 20.386 18.6926 15.7434 21.825C15.0646 22.292 14.4497 22.5196 13.896 22.5076C13.289 22.4945 12.1177 22.1637 11.2472 21.8809C10.1824 21.5341 9.33322 21.3507 9.40776 20.7616C9.44503 20.4549 9.86829 20.141 10.6749 19.8203Z" fill="white"/>
<defs>
<linearGradient id="paint0_linear_821_1508" x1="1706.67" y1="2.96289" x2="1706.67" y2="3410.37" gradientUnits="userSpaceOnUse">
<stop stop-color="#2AABEE"/>
<stop offset="1" stop-color="#229ED9"/>
</linearGradient>
</defs>
</svg>
