<svg width="40" height="40" viewBox="0 0 40 40" fill="none" xmlns="http://www.w3.org/2000/svg">
<path d="M30.2433 27.1167H27.8117C26.8917 27.1167 26.615 26.3717 24.965 24.7217C23.525 23.3334 22.9167 23.1601 22.5517 23.1601C22.0483 23.1601 21.91 23.2984 21.91 23.9934V26.1801C21.91 26.7717 21.7183 27.1184 20.1733 27.1184C18.6739 27.0176 17.2199 26.5621 15.931 25.7893C14.6421 25.0165 13.5553 23.9485 12.76 22.6734C10.872 20.3234 9.55824 17.5653 8.92334 14.6184C8.92334 14.2534 9.06167 13.9234 9.75667 13.9234H12.1867C12.8117 13.9234 13.0367 14.2017 13.2817 14.8434C14.4617 18.3167 16.475 21.3367 17.2917 21.3367C17.6033 21.3367 17.7417 21.1984 17.7417 20.4167V16.8401C17.6383 15.2084 16.77 15.0701 16.77 14.4801C16.7811 14.3241 16.8527 14.1787 16.9694 14.0748C17.0861 13.9708 17.2388 13.9165 17.395 13.9234H21.215C21.7367 13.9234 21.91 14.1834 21.91 14.8084V19.6351C21.91 20.1567 22.135 20.3301 22.2917 20.3301C22.6033 20.3301 22.8467 20.1567 23.42 19.5834C24.6517 18.0834 25.6567 16.4101 26.4067 14.6167C26.4832 14.4015 26.6281 14.2172 26.8192 14.092C27.0103 13.9669 27.2371 13.9076 27.465 13.9234H29.895C30.625 13.9234 30.7817 14.2884 30.625 14.8084C29.7408 16.7891 28.6468 18.6693 27.3617 20.4167C27.1 20.8167 26.995 21.0251 27.3617 21.4934C27.6033 21.8584 28.455 22.5701 29.0283 23.2467C29.8617 24.0784 30.5533 25.0401 31.0767 26.0934C31.285 26.7701 30.9367 27.1167 30.2433 27.1167Z" fill="white"/>
<path d="M25.1217 3.33325H14.895C5.55504 3.33325 3.33337 5.55492 3.33337 14.8783V25.1049C3.33337 34.4433 5.53837 36.6666 14.8784 36.6666H25.105C34.4434 36.6666 36.6667 34.4616 36.6667 25.1216V14.8949C36.6667 5.55492 34.4617 3.33325 25.1217 3.33325ZM30.2434 27.1166H27.8117C26.8917 27.1166 26.615 26.3716 24.965 24.7216C23.525 23.3333 22.9167 23.1599 22.5517 23.1599C22.0484 23.1599 21.91 23.2983 21.91 23.9933V26.1799C21.91 26.7716 21.7184 27.1183 20.1734 27.1183C18.6739 27.0175 17.2199 26.5619 15.931 25.7891C14.6422 25.0163 13.5553 23.9484 12.76 22.6733C10.872 20.3232 9.55828 17.5651 8.92337 14.6183C8.92337 14.2533 9.06171 13.9233 9.75671 13.9233H12.1867C12.8117 13.9233 13.0367 14.2016 13.2817 14.8433C14.4617 18.3166 16.475 21.3366 17.2917 21.3366C17.605 21.3366 17.7417 21.1983 17.7417 20.4166V16.8399C17.6384 15.2083 16.7717 15.0699 16.7717 14.4799C16.7828 14.3243 16.8542 14.1791 16.9705 14.0752C17.0869 13.9713 17.2392 13.9168 17.395 13.9233H21.215C21.7367 13.9233 21.91 14.1833 21.91 14.8083V19.6349C21.91 20.1566 22.135 20.3299 22.2917 20.3299C22.605 20.3299 22.8467 20.1566 23.42 19.5833C24.6515 18.0815 25.6576 16.4084 26.4067 14.6166C26.4833 14.4014 26.6282 14.2171 26.8193 14.0919C27.0103 13.9667 27.2371 13.9075 27.465 13.9233H29.8967C30.625 13.9233 30.78 14.2883 30.625 14.8083C29.7409 16.789 28.6468 18.6692 27.3617 20.4166C27.1 20.8166 26.995 21.0249 27.3617 21.4933C27.605 21.8583 28.455 22.5699 29.0284 23.2466C29.8617 24.0783 30.5534 25.0399 31.0767 26.0933C31.285 26.7699 30.9367 27.1166 30.2434 27.1166Z" fill="#467FC2"/>
</svg>
