<svg width="457" height="457" viewBox="0 0 457 457" fill="none" xmlns="http://www.w3.org/2000/svg">
<path fill-rule="evenodd" clip-rule="evenodd" d="M228.5 0.5C213.293 0.5 198.418 1.99098 184.02 4.83942C175.622 6.50073 170.161 14.6551 171.823 23.0528C173.484 31.4505 181.638 36.9114 190.036 35.25C202.464 32.7915 215.323 31.5 228.5 31.5C241.677 31.5 254.536 32.7915 266.964 35.25C275.362 36.9114 283.516 31.4505 285.177 23.0528C286.839 14.6551 281.378 6.50074 272.98 4.83943C258.582 1.99098 243.707 0.5 228.5 0.5ZM355.191 38.9123C348.078 34.15 338.451 36.056 333.688 43.1694C328.926 50.2828 330.832 59.91 337.945 64.6723C359.435 79.0594 377.941 97.5648 392.328 119.055C397.09 126.168 406.717 128.074 413.831 123.312C420.944 118.549 422.85 108.922 418.088 101.809C401.446 76.9517 380.048 55.5537 355.191 38.9123ZM119.055 64.6724C126.168 59.91 128.074 50.2828 123.312 43.1694C118.549 36.056 108.922 34.15 101.809 38.9123C76.9517 55.5537 55.5537 76.9517 38.9123 101.809C34.15 108.922 36.056 118.549 43.1694 123.312C50.2828 128.074 59.91 126.168 64.6723 119.055C79.0594 97.5648 97.5648 79.0594 119.055 64.6724ZM35.25 190.036C36.9114 181.638 31.4505 173.484 23.0528 171.823C14.6551 170.161 6.50074 175.622 4.83943 184.02C1.99098 198.418 0.5 213.293 0.5 228.5C0.5 243.707 1.99098 258.582 4.83942 272.98C6.50073 281.378 14.6551 286.839 23.0528 285.177C31.4505 283.516 36.9114 275.362 35.25 266.964C32.7915 254.536 31.5 241.677 31.5 228.5C31.5 215.323 32.7915 202.464 35.25 190.036ZM452.161 184.02C450.499 175.622 442.345 170.161 433.947 171.823C425.55 173.484 420.089 181.638 421.75 190.036C424.209 202.464 425.5 215.323 425.5 228.5C425.5 241.677 424.209 254.536 421.75 266.964C420.089 275.362 425.55 283.516 433.947 285.177C442.345 286.839 450.499 281.378 452.161 272.98C455.009 258.582 456.5 243.707 456.5 228.5C456.5 213.293 455.009 198.418 452.161 184.02ZM64.6724 337.945C59.91 330.832 50.2828 328.926 43.1694 333.688C36.056 338.451 34.15 348.078 38.9123 355.191C55.5537 380.048 76.9517 401.446 101.809 418.088C108.922 422.85 118.549 420.944 123.312 413.831C128.074 406.717 126.168 397.09 119.055 392.328C97.5648 377.941 79.0594 359.435 64.6724 337.945ZM418.088 355.191C422.85 348.078 420.944 338.451 413.831 333.688C406.717 328.926 397.09 330.832 392.328 337.945C377.941 359.435 359.435 377.941 337.945 392.328C330.832 397.09 328.926 406.717 333.688 413.831C338.451 420.944 348.078 422.85 355.191 418.088C380.048 401.446 401.446 380.048 418.088 355.191ZM190.036 421.75C181.638 420.089 173.484 425.55 171.823 433.947C170.161 442.345 175.622 450.499 184.02 452.161C198.418 455.009 213.293 456.5 228.5 456.5C243.707 456.5 258.582 455.009 272.98 452.161C281.378 450.499 286.839 442.345 285.177 433.947C283.516 425.55 275.362 420.089 266.964 421.75C254.536 424.209 241.677 425.5 228.5 425.5C215.323 425.5 202.464 424.209 190.036 421.75ZM228.5 77.5C218.435 77.5 208.586 78.4869 199.047 80.3738C190.65 82.0351 185.189 90.1895 186.85 98.5872C188.512 106.985 196.666 112.446 205.064 110.784C212.631 109.287 220.466 108.5 228.5 108.5C236.534 108.5 244.369 109.287 251.936 110.784C260.334 112.446 268.488 106.985 270.15 98.5872C271.811 90.1895 266.35 82.0351 257.953 80.3738C248.414 78.4869 238.565 77.5 228.5 77.5ZM161.837 128.703C168.95 123.941 170.856 114.313 166.094 107.2C161.332 100.086 151.705 98.1805 144.591 102.943C128.131 113.963 113.963 128.131 102.943 144.591C98.1805 151.705 100.087 161.332 107.2 166.094C114.313 170.856 123.941 168.95 128.703 161.837C137.468 148.744 148.744 137.468 161.837 128.703ZM312.409 102.943C305.295 98.1805 295.668 100.087 290.906 107.2C286.144 114.313 288.05 123.941 295.163 128.703C308.256 137.468 319.532 148.744 328.297 161.837C333.059 168.95 342.687 170.856 349.8 166.094C356.914 161.332 358.819 151.705 354.057 144.591C343.037 128.131 328.869 113.963 312.409 102.943ZM110.784 205.064C112.446 196.666 106.985 188.512 98.5872 186.85C90.1895 185.189 82.0351 190.65 80.3738 199.047C78.4869 208.586 77.5 218.435 77.5 228.5C77.5 238.565 78.4869 248.414 80.3738 257.953C82.0351 266.35 90.1895 271.811 98.5872 270.15C106.985 268.488 112.446 260.334 110.784 251.936C109.287 244.369 108.5 236.534 108.5 228.5C108.5 220.466 109.287 212.631 110.784 205.064ZM376.626 199.047C374.965 190.65 366.81 185.189 358.413 186.85C350.015 188.512 344.554 196.666 346.216 205.064C347.713 212.631 348.5 220.466 348.5 228.5C348.5 236.534 347.713 244.369 346.216 251.936C344.554 260.334 350.015 268.488 358.413 270.15C366.81 271.811 374.965 266.35 376.626 257.953C378.513 248.414 379.5 238.565 379.5 228.5C379.5 218.435 378.513 208.586 376.626 199.047ZM128.703 295.163C123.941 288.05 114.313 286.144 107.2 290.906C100.086 295.668 98.1805 305.295 102.943 312.409C113.963 328.869 128.131 343.037 144.591 354.057C151.705 358.819 161.332 356.914 166.094 349.8C170.856 342.687 168.95 333.059 161.837 328.297C148.744 319.532 137.468 308.256 128.703 295.163ZM354.057 312.409C358.819 305.295 356.914 295.668 349.8 290.906C342.687 286.144 333.059 288.05 328.297 295.163C319.532 308.256 308.256 319.532 295.163 328.297C288.05 333.059 286.144 342.687 290.906 349.8C295.668 356.914 305.295 358.819 312.409 354.057C328.869 343.037 343.037 328.869 354.057 312.409ZM205.064 346.216C196.666 344.554 188.512 350.015 186.85 358.413C185.189 366.81 190.65 374.965 199.047 376.626C208.586 378.513 218.435 379.5 228.5 379.5C238.565 379.5 248.414 378.513 257.953 376.626C266.35 374.965 271.811 366.81 270.15 358.413C268.488 350.015 260.334 344.554 251.936 346.216C244.369 347.713 236.534 348.5 228.5 348.5C220.466 348.5 212.631 347.713 205.064 346.216Z" fill="#FDB600"/>
</svg>
