<svg width="25" height="25" viewBox="0 0 25 25" fill="none" xmlns="http://www.w3.org/2000/svg">
<path d="M20.25 1.5C21.112 1.5 21.9386 1.84241 22.5481 2.4519C23.1576 3.0614 23.5 3.88805 23.5 4.75V20.25C23.5 21.112 23.1576 21.9386 22.5481 22.5481C21.9386 23.1576 21.112 23.5 20.25 23.5H4.75C3.88805 23.5 3.0614 23.1576 2.4519 22.5481C1.84241 21.9386 1.5 21.112 1.5 20.25V4.75C1.5 3.88805 1.84241 3.0614 2.4519 2.4519C3.0614 1.84241 3.88805 1.5 4.75 1.5H20.25ZM22 8.003H3V20.25C3 21.216 3.784 22 4.75 22H20.25C20.7141 22 21.1592 21.8156 21.4874 21.4874C21.8156 21.1592 22 20.7141 22 20.25V8.003ZM7.249 16.001C7.58052 16.001 7.89846 16.1327 8.13288 16.3671C8.3673 16.6015 8.499 16.9195 8.499 17.251C8.499 17.5825 8.3673 17.9005 8.13288 18.1349C7.89846 18.3693 7.58052 18.501 7.249 18.501C6.91748 18.501 6.59954 18.3693 6.36512 18.1349C6.1307 17.9005 5.999 17.5825 5.999 17.251C5.999 16.9195 6.1307 16.6015 6.36512 16.3671C6.59954 16.1327 6.91748 16.001 7.249 16.001ZM12.503 16.001C12.8345 16.001 13.1525 16.1327 13.3869 16.3671C13.6213 16.6015 13.753 16.9195 13.753 17.251C13.753 17.5825 13.6213 17.9005 13.3869 18.1349C13.1525 18.3693 12.8345 18.501 12.503 18.501C12.1715 18.501 11.8535 18.3693 11.6191 18.1349C11.3847 17.9005 11.253 17.5825 11.253 17.251C11.253 16.9195 11.3847 16.6015 11.6191 16.3671C11.8535 16.1327 12.1715 16.001 12.503 16.001ZM7.249 11.001C7.58052 11.001 7.89846 11.1327 8.13288 11.3671C8.3673 11.6015 8.499 11.9195 8.499 12.251C8.499 12.5825 8.3673 12.9005 8.13288 13.1349C7.89846 13.3693 7.58052 13.501 7.249 13.501C6.91748 13.501 6.59954 13.3693 6.36512 13.1349C6.1307 12.9005 5.999 12.5825 5.999 12.251C5.999 11.9195 6.1307 11.6015 6.36512 11.3671C6.59954 11.1327 6.91748 11.001 7.249 11.001ZM12.503 11.001C12.8345 11.001 13.1525 11.1327 13.3869 11.3671C13.6213 11.6015 13.753 11.9195 13.753 12.251C13.753 12.5825 13.6213 12.9005 13.3869 13.1349C13.1525 13.3693 12.8345 13.501 12.503 13.501C12.1715 13.501 11.8535 13.3693 11.6191 13.1349C11.3847 12.9005 11.253 12.5825 11.253 12.251C11.253 11.9195 11.3847 11.6015 11.6191 11.3671C11.8535 11.1327 12.1715 11.001 12.503 11.001ZM20.25 3H4.75C4.28587 3 3.84075 3.18437 3.51256 3.51256C3.18437 3.84075 3 4.28587 3 4.75V6.503H22V4.75C22 4.28587 21.8156 3.84075 21.4874 3.51256C21.1592 3.18437 20.7141 3 20.25 3Z" fill="#9747FF"/>
<path d="M18.6419 11.3661C18.4075 11.1317 18.0896 11 17.7581 11C17.4265 11 17.1086 11.1317 16.8742 11.3661C16.6398 11.6005 16.5081 11.9185 16.5081 12.25C16.5081 12.5815 16.6398 12.8995 16.8742 13.1339C17.1086 13.3683 17.4265 13.5 17.7581 13.5C18.0896 13.5 18.4075 13.3683 18.6419 13.1339C18.8764 12.8995 19.0081 12.5815 19.0081 12.25C19.0081 11.9185 18.8764 11.6005 18.6419 11.3661Z" fill="#C18B00"/>
</svg>
