<svg width="36" height="36" viewBox="0 0 36 36" fill="none" xmlns="http://www.w3.org/2000/svg">
<path d="M36 18C36 27.9411 27.9411 36 18 36C8.05887 36 0 27.9411 0 18C0 8.05887 8.05887 0 18 0C27.9411 0 36 8.05887 36 18Z" fill="#9747FF"/>
<path fill-rule="evenodd" clip-rule="evenodd" d="M18.008 19.8844L22.7227 24.5938C22.9729 24.8437 23.3122 24.9841 23.666 24.9841C24.0198 24.9841 24.3591 24.8437 24.6093 24.5938C24.8594 24.3439 25 24.005 25 23.6516C25 23.2982 24.8594 22.9592 24.6093 22.7093L19.8928 18L24.6084 13.2907C24.7322 13.1669 24.8304 13.0201 24.8974 12.8584C24.9644 12.6968 24.9988 12.5235 24.9988 12.3486C24.9988 12.1736 24.9642 12.0004 24.8972 11.8388C24.8301 11.6772 24.7318 11.5303 24.6079 11.4067C24.4841 11.283 24.337 11.1849 24.1752 11.118C24.0134 11.0511 23.8399 11.0167 23.6648 11.0167C23.4896 11.0167 23.3162 11.0512 23.1544 11.1182C22.9926 11.1852 22.8456 11.2834 22.7218 11.4071L18.008 16.1164L13.2933 11.4071C13.1703 11.2798 13.0232 11.1783 12.8605 11.1084C12.6979 11.0385 12.5229 11.0017 12.3458 11.0001C12.1687 10.9984 11.9931 11.0321 11.8292 11.099C11.6653 11.1659 11.5163 11.2647 11.391 11.3897C11.2658 11.5147 11.1667 11.6634 11.0995 11.8271C11.0324 11.9908 10.9986 12.1661 11 12.343C11.0015 12.5199 11.0382 12.6947 11.108 12.8573C11.1778 13.0198 11.2794 13.1668 11.4067 13.2898L16.1232 18L11.4076 22.7102C11.2802 22.8332 11.1787 22.9802 11.1089 23.1427C11.0391 23.3053 11.0024 23.4801 11.0009 23.657C10.9995 23.8339 11.0333 24.0092 11.1004 24.1729C11.1676 24.3366 11.2667 24.4853 11.3919 24.6103C11.5172 24.7353 11.6662 24.8341 11.8301 24.901C11.994 24.9679 12.1696 25.0016 12.3467 24.9999C12.5238 24.9983 12.6987 24.9615 12.8614 24.8916C13.0241 24.8217 13.1712 24.7202 13.2942 24.5929L18.008 19.8844Z" fill="white"/>
</svg>
