<svg width="60" height="59" viewBox="0 0 60 59" fill="none" xmlns="http://www.w3.org/2000/svg">
<circle cx="30" cy="29.5" r="29.5" fill="#9747FF"/>
<path d="M26.3 25.8C26.3 25.4835 26.2062 25.1742 26.0304 24.9111C25.8545 24.648 25.6047 24.4429 25.3123 24.3218C25.0199 24.2007 24.6982 24.169 24.3879 24.2307C24.0775 24.2925 23.7924 24.4449 23.5686 24.6686C23.3449 24.8924 23.1925 25.1775 23.1307 25.4879C23.069 25.7982 23.1007 26.1199 23.2218 26.4123C23.3429 26.7047 23.548 26.9545 23.8111 27.1303C24.0742 27.3062 24.3836 27.4 24.7 27.4C25.1244 27.4 25.5313 27.2314 25.8314 26.9314C26.1314 26.6313 26.3 26.2243 26.3 25.8ZM33.5 32.296C33.3183 32.1895 33.1175 32.12 32.9089 32.0913C32.7003 32.0627 32.4881 32.0755 32.2844 32.129C32.0808 32.1825 31.8897 32.2757 31.7222 32.4032C31.5546 32.5307 31.4139 32.69 31.308 32.872C31.1264 33.1913 30.8634 33.4569 30.5458 33.6416C30.2282 33.8263 29.8674 33.9236 29.5 33.9236C29.1326 33.9236 28.7718 33.8263 28.4542 33.6416C28.1366 33.4569 27.8736 33.1913 27.692 32.872C27.5861 32.69 27.4454 32.5307 27.2778 32.4032C27.1103 32.2757 26.9192 32.1825 26.7156 32.129C26.5119 32.0755 26.2997 32.0627 26.0911 32.0913C25.8825 32.12 25.6817 32.1895 25.5 32.296C25.134 32.5071 24.8664 32.8543 24.7555 33.262C24.6446 33.6696 24.6994 34.1046 24.908 34.472C25.3721 35.2797 26.041 35.9507 26.8472 36.4173C27.6534 36.8839 28.5685 37.1296 29.5 37.1296C30.4315 37.1296 31.3466 36.8839 32.1528 36.4173C32.959 35.9507 33.6279 35.2797 34.092 34.472C34.3006 34.1046 34.3554 33.6696 34.2445 33.262C34.1336 32.8543 33.866 32.5071 33.5 32.296ZM34.3 24.2C33.9836 24.2 33.6742 24.2938 33.4111 24.4696C33.148 24.6455 32.9429 24.8953 32.8218 25.1877C32.7007 25.4801 32.669 25.8018 32.7307 26.1121C32.7925 26.4225 32.9449 26.7076 33.1686 26.9314C33.3924 27.1551 33.6775 27.3075 33.9879 27.3693C34.2982 27.431 34.6199 27.3993 34.9123 27.2782C35.2047 27.1571 35.4545 26.952 35.6304 26.6889C35.8062 26.4258 35.9 26.1164 35.9 25.8C35.9 25.3757 35.7314 24.9687 35.4314 24.6686C35.1313 24.3686 34.7243 24.2 34.3 24.2ZM29.5 13C26.3355 13 23.2421 13.9384 20.6109 15.6965C17.9797 17.4546 15.9289 19.9534 14.7179 22.8771C13.5069 25.8007 13.1901 29.0177 13.8074 32.1214C14.4248 35.2251 15.9487 38.0761 18.1863 40.3137C20.4239 42.5513 23.2749 44.0752 26.3786 44.6926C29.4823 45.3099 32.6993 44.9931 35.6229 43.7821C38.5466 42.5711 41.0454 40.5203 42.8035 37.8891C44.5616 35.2579 45.5 32.1645 45.5 29C45.5 26.8988 45.0861 24.8183 44.2821 22.8771C43.478 20.9359 42.2994 19.172 40.8137 17.6863C39.328 16.2006 37.5641 15.022 35.6229 14.2179C33.6817 13.4139 31.6012 13 29.5 13ZM29.5 41.8C26.5197 41.8129 23.6283 40.7853 21.3245 38.8946C19.0207 37.0039 17.4488 34.3686 16.88 31.443C16.3112 28.5175 16.7811 25.4852 18.2087 22.869C19.6363 20.2528 21.932 18.2168 24.7 17.112C24.6835 17.341 24.6835 17.571 24.7 17.8C24.7 19.073 25.2057 20.2939 26.1059 21.1941C27.0061 22.0943 28.227 22.6 29.5 22.6C29.9244 22.6 30.3313 22.4314 30.6314 22.1314C30.9314 21.8313 31.1 21.4243 31.1 21C31.1 20.5757 30.9314 20.1687 30.6314 19.8686C30.3313 19.5686 29.9244 19.4 29.5 19.4C29.0757 19.4 28.6687 19.2314 28.3686 18.9314C28.0686 18.6313 27.9 18.2243 27.9 17.8C27.9 17.3757 28.0686 16.9687 28.3686 16.6686C28.6687 16.3686 29.0757 16.2 29.5 16.2C32.8948 16.2 36.1505 17.5486 38.551 19.949C40.9514 22.3495 42.3 25.6052 42.3 29C42.3 32.3948 40.9514 35.6505 38.551 38.051C36.1505 40.4514 32.8948 41.8 29.5 41.8Z" fill="white"/>
</svg>
