<svg width="166" height="37" viewBox="0 0 166 37" fill="none" xmlns="http://www.w3.org/2000/svg">
<g filter="url(#filter0_d_2024_12)">
<path d="M17.2864 4.84744C18.0637 3.5558 19.9363 3.5558 20.7136 4.84744L23.8297 10.0252C24.1089 10.4893 24.5644 10.8202 25.092 10.9424L30.9793 12.3059C32.4479 12.646 33.0266 14.427 32.0384 15.5654L28.0769 20.1289C27.7219 20.5379 27.5479 21.0734 27.5947 21.6129L28.1172 27.6334C28.2476 29.1353 26.7326 30.2359 25.3445 29.6479L19.7802 27.2905C19.2815 27.0793 18.7185 27.0793 18.2198 27.2905L12.6555 29.6479C11.2674 30.2359 9.75243 29.1353 9.88278 27.6334L10.4053 21.6129C10.4521 21.0734 10.2781 20.5379 9.9231 20.1289L5.96164 15.5654C4.97342 14.427 5.55208 12.646 7.02071 12.3059L12.908 10.9424C13.4356 10.8202 13.8911 10.4893 14.1703 10.0252L17.2864 4.84744Z" fill="#FFD600"/>
<path d="M17.2864 4.84744C18.0637 3.5558 19.9363 3.5558 20.7136 4.84744L23.8297 10.0252C24.1089 10.4893 24.5644 10.8202 25.092 10.9424L30.9793 12.3059C32.4479 12.646 33.0266 14.427 32.0384 15.5654L28.0769 20.1289C27.7219 20.5379 27.5479 21.0734 27.5947 21.6129L28.1172 27.6334C28.2476 29.1353 26.7326 30.2359 25.3445 29.6479L19.7802 27.2905C19.2815 27.0793 18.7185 27.0793 18.2198 27.2905L12.6555 29.6479C11.2674 30.2359 9.75243 29.1353 9.88278 27.6334L10.4053 21.6129C10.4521 21.0734 10.2781 20.5379 9.9231 20.1289L5.96164 15.5654C4.97342 14.427 5.55208 12.646 7.02071 12.3059L12.908 10.9424C13.4356 10.8202 13.8911 10.4893 14.1703 10.0252L17.2864 4.84744Z" fill="url(#paint0_linear_2024_12)" fill-opacity="0.5"/>
</g>
<g filter="url(#filter1_d_2024_12)">
<path d="M49.2864 4.84744C50.0637 3.5558 51.9363 3.5558 52.7136 4.84744L55.8297 10.0252C56.1089 10.4893 56.5644 10.8202 57.092 10.9424L62.9793 12.3059C64.4479 12.646 65.0266 14.427 64.0384 15.5654L60.0769 20.1289C59.7219 20.5379 59.5479 21.0734 59.5947 21.6129L60.1172 27.6334C60.2476 29.1353 58.7326 30.2359 57.3445 29.6479L51.7802 27.2905C51.2815 27.0793 50.7185 27.0793 50.2198 27.2905L44.6555 29.6479C43.2674 30.2359 41.7524 29.1353 41.8828 27.6334L42.4053 21.6129C42.4521 21.0734 42.2781 20.5379 41.9231 20.1289L37.9616 15.5654C36.9734 14.427 37.5521 12.646 39.0207 12.3059L44.908 10.9424C45.4356 10.8202 45.8911 10.4893 46.1703 10.0252L49.2864 4.84744Z" fill="#FFD600"/>
<path d="M49.2864 4.84744C50.0637 3.5558 51.9363 3.5558 52.7136 4.84744L55.8297 10.0252C56.1089 10.4893 56.5644 10.8202 57.092 10.9424L62.9793 12.3059C64.4479 12.646 65.0266 14.427 64.0384 15.5654L60.0769 20.1289C59.7219 20.5379 59.5479 21.0734 59.5947 21.6129L60.1172 27.6334C60.2476 29.1353 58.7326 30.2359 57.3445 29.6479L51.7802 27.2905C51.2815 27.0793 50.7185 27.0793 50.2198 27.2905L44.6555 29.6479C43.2674 30.2359 41.7524 29.1353 41.8828 27.6334L42.4053 21.6129C42.4521 21.0734 42.2781 20.5379 41.9231 20.1289L37.9616 15.5654C36.9734 14.427 37.5521 12.646 39.0207 12.3059L44.908 10.9424C45.4356 10.8202 45.8911 10.4893 46.1703 10.0252L49.2864 4.84744Z" fill="url(#paint1_linear_2024_12)" fill-opacity="0.5"/>
</g>
<g filter="url(#filter2_d_2024_12)">
<path d="M81.2864 4.84744C82.0637 3.5558 83.9363 3.5558 84.7136 4.84744L87.8297 10.0252C88.1089 10.4893 88.5644 10.8202 89.092 10.9424L94.9793 12.3059C96.4479 12.646 97.0266 14.427 96.0384 15.5654L92.0769 20.1289C91.7219 20.5379 91.5479 21.0734 91.5947 21.6129L92.1172 27.6334C92.2476 29.1353 90.7326 30.2359 89.3445 29.6479L83.7802 27.2905C83.2815 27.0793 82.7185 27.0793 82.2198 27.2905L76.6555 29.6479C75.2674 30.2359 73.7524 29.1353 73.8828 27.6334L74.4053 21.6129C74.4521 21.0734 74.2781 20.5379 73.9231 20.1289L69.9616 15.5654C68.9734 14.427 69.5521 12.646 71.0207 12.3059L76.908 10.9424C77.4356 10.8202 77.8911 10.4893 78.1703 10.0252L81.2864 4.84744Z" fill="#FFD600"/>
<path d="M81.2864 4.84744C82.0637 3.5558 83.9363 3.5558 84.7136 4.84744L87.8297 10.0252C88.1089 10.4893 88.5644 10.8202 89.092 10.9424L94.9793 12.3059C96.4479 12.646 97.0266 14.427 96.0384 15.5654L92.0769 20.1289C91.7219 20.5379 91.5479 21.0734 91.5947 21.6129L92.1172 27.6334C92.2476 29.1353 90.7326 30.2359 89.3445 29.6479L83.7802 27.2905C83.2815 27.0793 82.7185 27.0793 82.2198 27.2905L76.6555 29.6479C75.2674 30.2359 73.7524 29.1353 73.8828 27.6334L74.4053 21.6129C74.4521 21.0734 74.2781 20.5379 73.9231 20.1289L69.9616 15.5654C68.9734 14.427 69.5521 12.646 71.0207 12.3059L76.908 10.9424C77.4356 10.8202 77.8911 10.4893 78.1703 10.0252L81.2864 4.84744Z" fill="url(#paint2_linear_2024_12)" fill-opacity="0.5"/>
</g>
<g filter="url(#filter3_d_2024_12)">
<path d="M113.286 4.84744C114.064 3.5558 115.936 3.5558 116.714 4.84744L119.83 10.0252C120.109 10.4893 120.564 10.8202 121.092 10.9424L126.979 12.3059C128.448 12.646 129.027 14.427 128.038 15.5654L124.077 20.1289C123.722 20.5379 123.548 21.0734 123.595 21.6129L124.117 27.6334C124.248 29.1353 122.733 30.2359 121.345 29.6479L115.78 27.2905C115.282 27.0793 114.718 27.0793 114.22 27.2905L108.655 29.6479C107.267 30.2359 105.752 29.1353 105.883 27.6334L106.405 21.6129C106.452 21.0734 106.278 20.5379 105.923 20.1289L101.962 15.5654C100.973 14.427 101.552 12.646 103.021 12.3059L108.908 10.9424C109.436 10.8202 109.891 10.4893 110.17 10.0252L113.286 4.84744Z" fill="#FFD600"/>
<path d="M113.286 4.84744C114.064 3.5558 115.936 3.5558 116.714 4.84744L119.83 10.0252C120.109 10.4893 120.564 10.8202 121.092 10.9424L126.979 12.3059C128.448 12.646 129.027 14.427 128.038 15.5654L124.077 20.1289C123.722 20.5379 123.548 21.0734 123.595 21.6129L124.117 27.6334C124.248 29.1353 122.733 30.2359 121.345 29.6479L115.78 27.2905C115.282 27.0793 114.718 27.0793 114.22 27.2905L108.655 29.6479C107.267 30.2359 105.752 29.1353 105.883 27.6334L106.405 21.6129C106.452 21.0734 106.278 20.5379 105.923 20.1289L101.962 15.5654C100.973 14.427 101.552 12.646 103.021 12.3059L108.908 10.9424C109.436 10.8202 109.891 10.4893 110.17 10.0252L113.286 4.84744Z" fill="url(#paint3_linear_2024_12)" fill-opacity="0.5"/>
</g>
<g filter="url(#filter4_d_2024_12)">
<path d="M145.286 4.84744C146.064 3.5558 147.936 3.5558 148.714 4.84744L151.83 10.0252C152.109 10.4893 152.564 10.8202 153.092 10.9424L158.979 12.3059C160.448 12.646 161.027 14.427 160.038 15.5654L156.077 20.1289C155.722 20.5379 155.548 21.0734 155.595 21.6129L156.117 27.6334C156.248 29.1353 154.733 30.2359 153.345 29.6479L147.78 27.2905C147.282 27.0793 146.718 27.0793 146.22 27.2905L140.655 29.6479C139.267 30.2359 137.752 29.1353 137.883 27.6334L138.405 21.6129C138.452 21.0734 138.278 20.5379 137.923 20.1289L133.962 15.5654C132.973 14.427 133.552 12.646 135.021 12.3059L140.908 10.9424C141.436 10.8202 141.891 10.4893 142.17 10.0252L145.286 4.84744Z" fill="#FFD600"/>
<path d="M145.286 4.84744C146.064 3.5558 147.936 3.5558 148.714 4.84744L151.83 10.0252C152.109 10.4893 152.564 10.8202 153.092 10.9424L158.979 12.3059C160.448 12.646 161.027 14.427 160.038 15.5654L156.077 20.1289C155.722 20.5379 155.548 21.0734 155.595 21.6129L156.117 27.6334C156.248 29.1353 154.733 30.2359 153.345 29.6479L147.78 27.2905C147.282 27.0793 146.718 27.0793 146.22 27.2905L140.655 29.6479C139.267 30.2359 137.752 29.1353 137.883 27.6334L138.405 21.6129C138.452 21.0734 138.278 20.5379 137.923 20.1289L133.962 15.5654C132.973 14.427 133.552 12.646 135.021 12.3059L140.908 10.9424C141.436 10.8202 141.891 10.4893 142.17 10.0252L145.286 4.84744Z" fill="url(#paint4_linear_2024_12)" fill-opacity="0.5"/>
</g>
<defs>
<filter id="filter0_d_2024_12" x="0.470459" y="0.878662" width="37.0591" height="35.9304" filterUnits="userSpaceOnUse" color-interpolation-filters="sRGB">
<feFlood flood-opacity="0" result="BackgroundImageFix"/>
<feColorMatrix in="SourceAlpha" type="matrix" values="0 0 0 0 0 0 0 0 0 0 0 0 0 0 0 0 0 0 127 0" result="hardAlpha"/>
<feOffset dy="2"/>
<feGaussianBlur stdDeviation="2.5"/>
<feComposite in2="hardAlpha" operator="out"/>
<feColorMatrix type="matrix" values="0 0 0 0 0 0 0 0 0 0 0 0 0 0 0 0 0 0 0.25 0"/>
<feBlend mode="normal" in2="BackgroundImageFix" result="effect1_dropShadow_2024_12"/>
<feBlend mode="normal" in="SourceGraphic" in2="effect1_dropShadow_2024_12" result="shape"/>
</filter>
<filter id="filter1_d_2024_12" x="32.4705" y="0.878662" width="37.0591" height="35.9304" filterUnits="userSpaceOnUse" color-interpolation-filters="sRGB">
<feFlood flood-opacity="0" result="BackgroundImageFix"/>
<feColorMatrix in="SourceAlpha" type="matrix" values="0 0 0 0 0 0 0 0 0 0 0 0 0 0 0 0 0 0 127 0" result="hardAlpha"/>
<feOffset dy="2"/>
<feGaussianBlur stdDeviation="2.5"/>
<feComposite in2="hardAlpha" operator="out"/>
<feColorMatrix type="matrix" values="0 0 0 0 0 0 0 0 0 0 0 0 0 0 0 0 0 0 0.25 0"/>
<feBlend mode="normal" in2="BackgroundImageFix" result="effect1_dropShadow_2024_12"/>
<feBlend mode="normal" in="SourceGraphic" in2="effect1_dropShadow_2024_12" result="shape"/>
</filter>
<filter id="filter2_d_2024_12" x="64.4705" y="0.878662" width="37.0591" height="35.9304" filterUnits="userSpaceOnUse" color-interpolation-filters="sRGB">
<feFlood flood-opacity="0" result="BackgroundImageFix"/>
<feColorMatrix in="SourceAlpha" type="matrix" values="0 0 0 0 0 0 0 0 0 0 0 0 0 0 0 0 0 0 127 0" result="hardAlpha"/>
<feOffset dy="2"/>
<feGaussianBlur stdDeviation="2.5"/>
<feComposite in2="hardAlpha" operator="out"/>
<feColorMatrix type="matrix" values="0 0 0 0 0 0 0 0 0 0 0 0 0 0 0 0 0 0 0.25 0"/>
<feBlend mode="normal" in2="BackgroundImageFix" result="effect1_dropShadow_2024_12"/>
<feBlend mode="normal" in="SourceGraphic" in2="effect1_dropShadow_2024_12" result="shape"/>
</filter>
<filter id="filter3_d_2024_12" x="96.4705" y="0.878662" width="37.0591" height="35.9304" filterUnits="userSpaceOnUse" color-interpolation-filters="sRGB">
<feFlood flood-opacity="0" result="BackgroundImageFix"/>
<feColorMatrix in="SourceAlpha" type="matrix" values="0 0 0 0 0 0 0 0 0 0 0 0 0 0 0 0 0 0 127 0" result="hardAlpha"/>
<feOffset dy="2"/>
<feGaussianBlur stdDeviation="2.5"/>
<feComposite in2="hardAlpha" operator="out"/>
<feColorMatrix type="matrix" values="0 0 0 0 0 0 0 0 0 0 0 0 0 0 0 0 0 0 0.25 0"/>
<feBlend mode="normal" in2="BackgroundImageFix" result="effect1_dropShadow_2024_12"/>
<feBlend mode="normal" in="SourceGraphic" in2="effect1_dropShadow_2024_12" result="shape"/>
</filter>
<filter id="filter4_d_2024_12" x="128.47" y="0.878662" width="37.0591" height="35.9304" filterUnits="userSpaceOnUse" color-interpolation-filters="sRGB">
<feFlood flood-opacity="0" result="BackgroundImageFix"/>
<feColorMatrix in="SourceAlpha" type="matrix" values="0 0 0 0 0 0 0 0 0 0 0 0 0 0 0 0 0 0 127 0" result="hardAlpha"/>
<feOffset dy="2"/>
<feGaussianBlur stdDeviation="2.5"/>
<feComposite in2="hardAlpha" operator="out"/>
<feColorMatrix type="matrix" values="0 0 0 0 0 0 0 0 0 0 0 0 0 0 0 0 0 0 0.25 0"/>
<feBlend mode="normal" in2="BackgroundImageFix" result="effect1_dropShadow_2024_12"/>
<feBlend mode="normal" in="SourceGraphic" in2="effect1_dropShadow_2024_12" result="shape"/>
</filter>
<linearGradient id="paint0_linear_2024_12" x1="19" y1="7.12" x2="19" y2="34" gradientUnits="userSpaceOnUse">
<stop stop-color="#C44821"/>
<stop offset="1" stop-color="#FF9900" stop-opacity="0"/>
</linearGradient>
<linearGradient id="paint1_linear_2024_12" x1="51" y1="7.12" x2="51" y2="34" gradientUnits="userSpaceOnUse">
<stop stop-color="#C44821"/>
<stop offset="1" stop-color="#FF9900" stop-opacity="0"/>
</linearGradient>
<linearGradient id="paint2_linear_2024_12" x1="83" y1="7.12" x2="83" y2="34" gradientUnits="userSpaceOnUse">
<stop stop-color="#C44821"/>
<stop offset="1" stop-color="#FF9900" stop-opacity="0"/>
</linearGradient>
<linearGradient id="paint3_linear_2024_12" x1="115" y1="7.12" x2="115" y2="34" gradientUnits="userSpaceOnUse">
<stop stop-color="#C44821"/>
<stop offset="1" stop-color="#FF9900" stop-opacity="0"/>
</linearGradient>
<linearGradient id="paint4_linear_2024_12" x1="147" y1="7.12" x2="147" y2="34" gradientUnits="userSpaceOnUse">
<stop stop-color="#C44821"/>
<stop offset="1" stop-color="#FF9900" stop-opacity="0"/>
</linearGradient>
</defs>
</svg>
