<svg width="60" height="59" viewBox="0 0 60 59" fill="none" xmlns="http://www.w3.org/2000/svg">
<circle cx="30" cy="29.5" r="29.5" fill="#9747FF"/>
<path d="M43.3558 18.9327L29.8558 14.4327C29.6248 14.3557 29.3752 14.3557 29.1442 14.4327L15.6442 18.9327C15.4202 19.0074 15.2254 19.1506 15.0873 19.3422C14.9493 19.5337 14.875 19.7639 14.875 20V31.25C14.875 31.5484 14.9935 31.8345 15.2045 32.0455C15.4155 32.2565 15.7016 32.375 16 32.375C16.2984 32.375 16.5845 32.2565 16.7955 32.0455C17.0065 31.8345 17.125 31.5484 17.125 31.25V21.561L21.8486 23.1346C20.5936 25.1621 20.1945 27.6048 20.739 29.9263C21.2834 32.2479 22.7269 34.2584 24.7525 35.5166C22.2212 36.5094 20.0331 38.3052 18.4328 40.7605C18.3496 40.8842 18.2918 41.0232 18.2627 41.1694C18.2337 41.3157 18.234 41.4662 18.2637 41.6123C18.2934 41.7584 18.3518 41.8972 18.4355 42.0205C18.5193 42.1439 18.6267 42.2493 18.7516 42.3308C18.8765 42.4122 19.0163 42.4681 19.1629 42.495C19.3096 42.5219 19.4601 42.5194 19.6058 42.4877C19.7515 42.4559 19.8894 42.3956 20.0115 42.31C20.1336 42.2245 20.2375 42.1156 20.3172 41.9896C22.4364 38.7383 25.7833 36.875 29.5 36.875C33.2167 36.875 36.5636 38.7383 38.6828 41.9896C38.8478 42.2348 39.1027 42.4052 39.3924 42.4641C39.682 42.5229 39.9832 42.4653 40.2308 42.3038C40.4784 42.1423 40.6525 41.8899 40.7154 41.6011C40.7783 41.3123 40.7251 41.0104 40.5672 40.7605C38.9669 38.3052 36.7703 36.5094 34.2475 35.5166C36.2711 34.2585 37.7133 32.2492 38.2576 29.9294C38.802 27.6096 38.4042 25.1685 37.1514 23.1416L43.3558 21.0744C43.5798 20.9998 43.7747 20.8565 43.9128 20.6649C44.0509 20.4734 44.1253 20.2432 44.1253 20.0071C44.1253 19.7709 44.0509 19.5407 43.9128 19.3492C43.7747 19.1576 43.5798 19.0143 43.3558 18.9397V18.9327ZM36.25 27.875C36.2503 28.9422 35.9976 29.9942 35.5126 30.9447C35.0276 31.8953 34.3241 32.7173 33.4599 33.3434C32.5957 33.9694 31.5954 34.3816 30.541 34.5462C29.4866 34.7108 28.4082 34.623 27.3943 34.2901C26.3805 33.9572 25.4599 33.3887 24.7083 32.6311C23.9567 31.8736 23.3954 30.9486 23.0705 29.9322C22.7456 28.9157 22.6663 27.8367 22.8391 26.7836C23.012 25.7306 23.432 24.7335 24.0648 23.8742L29.1442 25.5617C29.3752 25.6387 29.6248 25.6387 29.8558 25.5617L34.9352 23.8742C35.7899 25.033 36.2507 26.4352 36.25 27.875Z" fill="white"/>
</svg>
