<svg width="40" height="40" viewBox="0 0 40 40" fill="none" xmlns="http://www.w3.org/2000/svg">
<path d="M3.99174 19.8541C3.99095 22.6641 4.7309 25.4078 6.1379 27.8261L3.85718 36.0888L12.3791 33.8717C14.7362 35.1449 17.3771 35.812 20.0608 35.8122H20.0678C28.9272 35.8122 36.1389 28.659 36.1427 19.8667C36.1444 15.6062 34.4738 11.6 31.4385 8.58587C28.4037 5.57203 24.3676 3.91137 20.0672 3.90942C11.2067 3.90942 3.9954 11.0623 3.99174 19.8541Z" fill="url(#paint0_linear_821_1496)"/>
<path d="M3.41798 19.8499C3.41707 22.7609 4.18354 25.6027 5.6407 28.1077L3.2782 36.6666L12.1057 34.37C14.538 35.6858 17.2764 36.3796 20.063 36.3806H20.0702C29.2474 36.3806 36.7182 28.9701 36.7221 19.8631C36.7237 15.4495 34.993 11.2993 31.8492 8.17717C28.7051 5.05548 24.5246 3.33507 20.0702 3.33325C10.8914 3.33325 3.42164 10.7428 3.41798 19.8499ZM8.67508 27.6763L8.34547 27.1571C6.9599 24.9711 6.22858 22.4449 6.22962 19.8509C6.2325 12.2813 12.441 6.12284 20.0754 6.12284C23.7725 6.12439 27.247 7.55444 29.8604 10.1491C32.4736 12.744 33.9115 16.1933 33.9106 19.8621C33.9072 27.4317 27.6985 33.5909 20.0702 33.5909H20.0647C17.5808 33.5896 15.1448 32.9277 13.0203 31.677L12.5147 31.3795L7.27631 32.7422L8.67508 27.6763Z" fill="url(#paint1_linear_821_1496)"/>
<path d="M15.9079 12.9444C15.5962 12.257 15.2681 12.2431 14.9717 12.231C14.729 12.2207 14.4515 12.2214 14.1743 12.2214C13.8968 12.2214 13.446 12.325 13.0649 12.7379C12.6834 13.1511 11.6085 14.1498 11.6085 16.1809C11.6085 18.2122 13.0995 20.1751 13.3074 20.4509C13.5155 20.7261 16.1858 25.0276 20.4148 26.6824C23.9296 28.0577 24.6449 27.7841 25.4077 27.7152C26.1706 27.6465 27.8694 26.7168 28.216 25.7528C28.5629 24.7888 28.5629 23.9626 28.4589 23.7899C28.3549 23.6179 28.0774 23.5146 27.6613 23.3082C27.2451 23.1017 25.1995 22.103 24.8182 21.9652C24.4367 21.8275 24.1594 21.7588 23.8819 22.1722C23.6044 22.5849 22.8077 23.5146 22.5648 23.7899C22.3222 24.0659 22.0793 24.1003 21.6634 23.8938C21.247 23.6866 19.9071 23.2512 18.3173 21.8449C17.0804 20.7506 16.2453 19.3992 16.0026 18.9858C15.7599 18.5731 15.9766 18.3493 16.1852 18.1436C16.3722 17.9586 16.6015 17.6615 16.8097 17.4206C17.0172 17.1794 17.0864 17.0074 17.2251 16.7321C17.364 16.4565 17.2945 16.2154 17.1906 16.0089C17.0864 15.8024 16.2779 13.7606 15.9079 12.9444Z" fill="white"/>
<defs>
<linearGradient id="paint0_linear_821_1496" x1="1618.13" y1="3221.85" x2="1618.13" y2="3.90942" gradientUnits="userSpaceOnUse">
<stop stop-color="#1FAF38"/>
<stop offset="1" stop-color="#60D669"/>
</linearGradient>
<linearGradient id="paint1_linear_821_1496" x1="1675.47" y1="3336.67" x2="1675.47" y2="3.33325" gradientUnits="userSpaceOnUse">
<stop stop-color="#F9F9F9"/>
<stop offset="1" stop-color="white"/>
</linearGradient>
</defs>
</svg>
