<svg width="446" height="100" viewBox="0 0 446 100" fill="none" xmlns="http://www.w3.org/2000/svg">
<path d="M-306 37.7109L-300.905 51.0789C-284.847 93.2075 -225.248 93.2075 -209.191 51.0788V51.0788C-193.134 8.95016 -133.535 8.95016 -117.477 51.0788V51.0788C-101.42 93.2075 -41.4981 92.36 -25.4408 50.2313V50.2313C-9.60809 8.69203 49.4756 7.85637 65.3083 49.3957L68.7608 58.4537C83.5629 97.2892 138.68 96.7813 152.764 57.6796V57.6796L157.859 44.3117C173.916 2.18303 233.515 2.18304 249.573 44.3117V44.3117C265.63 86.4404 325.229 86.4404 341.286 44.3117V44.3117C357.344 2.18306 416.943 2.18306 433 44.3117V44.3117" stroke="#FFD600" stroke-width="25.3734" stroke-linecap="round"/>
</svg>
