<svg width="1920" height="538" viewBox="0 0 1920 538" fill="none" xmlns="http://www.w3.org/2000/svg">
<path d="M2126.26 228.931C2056.64 308.868 1937.14 277.432 1879.06 199.583M1879.06 199.583C1876.15 195.675 1873.39 191.65 1870.8 187.516C1840.93 139.874 1842.73 85.8241 1881.32 44.3835C1905.05 18.9049 1955.63 -8.50782 1991.27 12.4147C2031.92 36.273 2005.02 92.9694 1985.65 118.13C1958.09 153.931 1920.41 180.852 1879.06 199.583ZM1879.06 199.583C1854.31 210.799 1828.23 219.079 1802.21 224.571C1759.29 233.632 1710.21 232.545 1667.8 218.444M1667.8 218.444C1613.18 200.282 1569.62 160.53 1564.53 93.0632C1555.32 -29 1730.85 2.35653 1793.5 41.4772C1833.36 66.364 1854.94 108.173 1819.45 147.374C1783.27 187.345 1722.88 207.234 1667.8 218.444ZM1667.8 218.444C1653.4 221.375 1639.36 223.713 1626.22 225.661C1531.24 239.736 1433.23 233.513 1351.52 181.704M-54 475.788C-45.2116 471.214 -40.677 460.141 -38.2531 452.593M-38.2531 452.593C-37.4791 450.183 -36.9203 448.133 -36.507 446.768M-38.2531 452.593C-1.68552 468.073 45.317 483.961 83.5221 494.104C100.905 498.719 152.047 509.9 177.177 509.476C210.376 508.916 216.645 487.837 219.632 473.984M219.632 473.984C219.951 472.504 220.233 471.107 220.506 469.826C231.313 419.113 222.412 365.721 192.517 317.187C178.896 295.072 165.832 279.525 139.365 261.734C129.389 255.028 116.037 247.361 98.9967 245.715C61.2839 242.073 87.4949 306.648 87.9626 308.064C104.013 356.645 132.396 406.35 183.098 448.133C193.718 456.885 206.026 465.639 219.632 473.984ZM219.632 473.984C245.894 490.092 276.992 504.678 310.124 514.791C341.753 524.446 404.45 534.717 443.071 532.174C543.012 525.593 561.859 454.186 569.021 412.936C573.874 384.983 571.659 348.53 562.293 320.563C539.921 253.761 553.445 317.271 523.808 259.507" stroke="#4700AF" stroke-opacity="0.5" stroke-width="9" stroke-linecap="round"/>
</svg>
