<svg width="1920" height="538" viewBox="0 0 1920 538" fill="none" xmlns="http://www.w3.org/2000/svg">
<path d="M2064.75 228.931C1995.12 308.868 1875.62 277.432 1817.55 199.583M1817.55 199.583C1814.63 195.675 1811.87 191.65 1809.28 187.516C1779.41 139.874 1781.21 85.8241 1819.8 44.3835C1843.53 18.9049 1894.11 -8.50782 1929.76 12.4147C1970.4 36.273 1943.5 92.9694 1924.13 118.13C1896.57 153.931 1858.9 180.852 1817.55 199.583ZM1817.55 199.583C1792.79 210.799 1766.71 219.079 1740.7 224.571C1697.77 233.632 1648.69 232.545 1606.28 218.444M1606.28 218.444C1551.66 200.282 1508.1 160.53 1503.01 93.0632C1493.8 -29 1669.34 2.35653 1731.99 41.4772C1771.84 66.364 1793.42 108.173 1757.93 147.374C1721.75 187.345 1661.36 207.234 1606.28 218.444ZM1606.28 218.444C1591.88 221.375 1577.85 223.713 1564.7 225.661C1469.72 239.736 1371.71 233.513 1290 181.704M-115.516 475.788C-106.728 471.214 -102.193 460.141 -99.7695 452.593M-99.7695 452.593C-98.9956 450.183 -98.4368 448.133 -98.0234 446.768M-99.7695 452.593C-63.202 468.073 -16.1995 483.961 22.0056 494.104C39.3885 498.719 90.5301 509.9 115.661 509.476C148.86 508.916 155.129 487.837 158.116 473.984M158.116 473.984C158.435 472.504 158.716 471.107 158.989 469.826C169.797 419.113 160.895 365.721 131.001 317.187C117.38 295.072 104.316 279.525 77.8488 261.734C67.8724 255.028 54.5203 247.361 37.4802 245.715C-0.232544 242.073 25.9784 306.648 26.4461 308.064C42.4965 356.645 70.8797 406.35 121.581 448.133C132.201 456.885 144.509 465.639 158.116 473.984ZM158.116 473.984C184.377 490.092 215.475 504.678 248.608 514.791C280.236 524.446 342.933 534.717 381.554 532.174C481.496 525.593 500.343 454.186 507.504 412.936C512.357 384.983 510.142 348.53 500.776 320.563C478.405 253.761 491.929 317.271 462.292 259.507" stroke="url(#paint0_linear_408_1167)" stroke-width="9" stroke-linecap="round"/>
<defs>
<linearGradient id="paint0_linear_408_1167" x1="-660.583" y1="-181.819" x2="-493.963" y2="919.631" gradientUnits="userSpaceOnUse">
<stop stop-color="#FFD600"/>
<stop offset="1" stop-color="#9747FF"/>
</linearGradient>
</defs>
</svg>
